<svg xmlns="http://www.w3.org/2000/svg" viewBox="0 0 512 512">
  <defs>
    <linearGradient id="bgGrad" x1="0%" y1="0%" x2="100%" y2="100%">
      <stop offset="0%" style="stop-color:#1e40af;stop-opacity:1" />
      <stop offset="100%" style="stop-color:#0f172a;stop-opacity:1" />
    </linearGradient>
    
    <linearGradient id="bubbleGrad" x1="0%" y1="0%" x2="0%" y2="100%">
      <stop offset="0%" style="stop-color:#ffffff;stop-opacity:1" />
      <stop offset="100%" style="stop-color:#e2e8f0;stop-opacity:1" />
    </linearGradient>

    <filter id="shadow" x="-20%" y="-20%" width="140%" height="140%">
      <feDropShadow dx="0" dy="10" stdDeviation="15" flood-opacity="0.3"/>
    </filter>
  </defs>

  <rect width="512" height="512" rx="140" fill="url(#bgGrad)"/>
  
  <rect width="512" height="256" rx="140" fill="white" fill-opacity="0.05"/>

  <g filter="url(#shadow)">
    <path d="M160 160c-35.3 0-64 28.7-64 64v128c0 35.3 28.7 64 64 64h16l0 48c0 14.8 17.9 22.2 28.3 11.7l59.7-59.7H352c35.3 0 64-28.7 64-64V224c0-35.3-28.7-64-64-64H160z" 
          fill="url(#bubbleGrad)"/>
  </g>

  <circle cx="210" cy="288" r="18" fill="#1e3a8a" fill-opacity="0.8"/>
  <circle cx="256" cy="288" r="18" fill="#1e3a8a" fill-opacity="0.8"/>
  <circle cx="302" cy="288" r="18" fill="#1e3a8a" fill-opacity="0.8"/>
</svg>
